<svg id="Layer_1" data-name="Layer 1" xmlns="http://www.w3.org/2000/svg" width="1.6183in" height="0.7743in" viewBox="0 0 116.5144 55.746"><defs><style>.cls-1{fill:blue;}</style></defs><title>nc_website_2019</title><path class="cls-1" d="M21.6126,24.7362,4.7552,2.3944V18.9355a11.2731,11.2731,0,0,0,.2031,2.707,2.29,2.29,0,0,0,1.15,1.1953,5.8621,5.8621,0,0,0,2.8477.5449v.8086H.0619v-.8086a6.3965,6.3965,0,0,0,2.6015-.624,2.0306,2.0306,0,0,0,1.0645-1.0811,13.2537,13.2537,0,0,0,.166-2.7421V6.2968A16.8859,16.8859,0,0,0,3.64,2.623a1.7255,1.7255,0,0,0-.8086-1.1954A7.11,7.11,0,0,0,.3607,1.164V.3554H7.3919l14.1153,18.65V4.75a5.3,5.3,0,0,0-.3242-2.2148,2.289,2.289,0,0,0-1.3282-1.002,6.9833,6.9833,0,0,0-2.4082-.3691V.3554h8.6485V1.164a6.2857,6.2857,0,0,0-2.3809.58,2.1608,2.1608,0,0,0-1.1074,1.0986,6.9364,6.9364,0,0,0-.2383,2.1709V24.7362Z"/><path class="cls-1" d="M39.1849,15.4023H30.1322l-.6153,1.5117a15.3291,15.3291,0,0,0-1.3711,4.289,1.914,1.914,0,0,0,.7286,1.626,3.0132,3.0132,0,0,0,1.873.5537v.8086h-7.084v-.8086a3.8179,3.8179,0,0,0,2.3555-1.1162,13.6707,13.6707,0,0,0,1.8633-3.665q.0879-.2637.8437-2.0391L35.6517.0214h.6856L44.3,18.953l1.09,2.4961a3.3173,3.3173,0,0,0,.9922,1.3272,3.6368,3.6368,0,0,0,1.873.6064v.8086H38.8861v-.8086a6.9761,6.9761,0,0,0,2.3281-.2549.9892.9892,0,0,0,.6074-1.0107,10.233,10.233,0,0,0-.8086-2.3027Zm-.2988-.7911-4.2188-10.16-4.2011,10.16Z"/><path class="cls-1" d="M46.7357,12.1151a11.3692,11.3692,0,0,1,3.6914-8.8593,13.215,13.215,0,0,1,9.2109-3.34,13.5373,13.5373,0,0,1,9.3086,3.3047,11.4233,11.4233,0,0,1,3.7344,9.0176,11.8508,11.8508,0,0,1-3.5762,8.9648,13.0394,13.0394,0,0,1-9.414,3.4278,13.04,13.04,0,0,1-9.3164-3.4278A11.899,11.899,0,0,1,46.7357,12.1151Zm4.0254.1231q0,5.748,2.2949,8.6309t6.8809,2.8828A7.7559,7.7559,0,0,0,66.3,20.8691q2.3379-2.8829,2.3379-8.5957,0-5.5548-2.3027-8.5166a7.9514,7.9514,0,0,0-6.68-2.962,7.9275,7.9275,0,0,0-6.6,2.8916Q50.7621,6.5781,50.7611,12.2382Z"/><path class="cls-1" d="M89.4076,20.078,98.0912.3554h7.3125V1.164h-.8789a5.8069,5.8069,0,0,0-2.3028.29,1.5313,1.5313,0,0,0-.7285,1.0811,22.3475,22.3475,0,0,0-.1855,3.7617V17.9862a29.48,29.48,0,0,0,.1406,3.6827,1.9016,1.9016,0,0,0,.7129,1.292,3.9537,3.9537,0,0,0,2.1875.4218h1.0547v.8086H94.013v-.8086h.8438a4.0844,4.0844,0,0,0,2.1015-.3867,1.793,1.793,0,0,0,.7559-1.2041,25.5606,25.5606,0,0,0,.166-3.8057V2.8163l-9.4394,21.375h-.8262l-9.51-21.375V16.7734a28.0172,28.0172,0,0,0,.1758,3.9023,3.0339,3.0339,0,0,0,1.09,1.8193,4.2648,4.2648,0,0,0,2.5664.8877v.8086H73.4115v-.8086A4.3549,4.3549,0,0,0,75.9,22.5478a3.01,3.01,0,0,0,1.1679-1.8369,25.2852,25.2852,0,0,0,.211-4.043V6.2968a24.2643,24.2643,0,0,0-.1661-3.6738A1.6087,1.6087,0,0,0,76.41,1.48a5.4823,5.4823,0,0,0-2.3476-.3164h-.65V.3554h7.26Z"/><path class="cls-1" d="M105.222,1.164V.3554h10.8985V1.164h-.51a5.806,5.806,0,0,0-2.3027.29,1.5332,1.5332,0,0,0-.7305,1.0811,22.4183,22.4183,0,0,0-.1836,3.7617V17.9862a31.5136,31.5136,0,0,0,.1309,3.6827,1.8706,1.8706,0,0,0,.7031,1.292,3.9616,3.9616,0,0,0,2.1894.4218h.7032v.8086H105.222v-.8086h.7031a4.123,4.123,0,0,0,2.1172-.3867,1.7646,1.7646,0,0,0,.7481-1.2041,26.916,26.916,0,0,0,.1582-3.8057V6.2968A25.5719,25.5719,0,0,0,108.79,2.623a1.5733,1.5733,0,0,0-.7031-1.1426,5.5451,5.5451,0,0,0-2.3555-.3164Z"/><path class="cls-1" d="M25.7376,46.9765c-1.7011,5.292-6.1406,8.77-13.2461,8.77-8.0664,0-11.73-4.7363-11.73-11.3223,0-8.2519,5.625-15.8369,15.2461-15.8369,6.8828,0,10.916,3.8106,11.2109,9.14H20.8548c-.2226-1.6651-1.332-4.44-5.3652-4.44-5.6621,0-8.3262,5.7725-8.3262,10.879,0,3.6259,1.2578,6.8447,5.8828,6.8447,3.1817,0,4.959-1.3692,6.2911-4.0332Z"/><path class="cls-1" d="M33.9876,29.1415h5.9571l-2.0723,9.917H49.4915l2.0723-9.917H57.558l-5.5508,26.05H46.05l2.3692-11.249H36.8L34.431,55.1913H28.474Z"/><path class="cls-1" d="M65.7708,49.1972l-3.664,5.9941h-6.4L71.21,29.1415h7.6953l5.0332,26.05H77.7962l-1.1093-5.9941ZM75.91,44.3124c-.9258-5.55-1.5176-8.9912-1.7031-10.9521h-.0371c-.961,2.1084-2.959,5.7353-5.8457,10.9521Z"/><path class="cls-1" d="M86.8978,55.1913l5.5117-26.05h7.18c4.625,11.1377,6.4375,15.4668,7.4375,18.6123h.0742c.3321-2.7383,1.4434-7.8818,2.33-12.1738l1.4063-6.4385h5.5507l-5.5136,26.05H104.14c-1.5176-3.8857-6.6973-17.1689-7.5488-20.13h-.0743c-.4433,3.22-1.3691,7.2159-2.33,11.878l-1.74,8.2519Z"/></svg>